<mxfile host="65bd71144e">
    <diagram id="StJ5ebPuaYIJdvMYbsQy" name="ページ1">
        <mxGraphModel dx="830" dy="771" grid="1" gridSize="10" guides="1" tooltips="1" connect="1" arrows="1" fold="1" page="1" pageScale="1" pageWidth="827" pageHeight="1169" background="#ffffff" math="0" shadow="0">
            <root>
                <mxCell id="0"/>
                <mxCell id="1" parent="0"/>
                <mxCell id="10" value="" style="rounded=0;whiteSpace=wrap;html=1;fontSize=18;fontColor=#000000;strokeColor=#000000;strokeWidth=5;fillColor=none;dashed=1;dashPattern=1 1;" parent="1" vertex="1">
                    <mxGeometry x="200" y="140" width="160" height="180" as="geometry"/>
                </mxCell>
                <mxCell id="11" value="" style="rounded=0;whiteSpace=wrap;html=1;fontSize=18;fontColor=#000000;strokeColor=#000000;strokeWidth=5;fillColor=none;" parent="1" vertex="1">
                    <mxGeometry x="200" y="384" width="160" height="240" as="geometry"/>
                </mxCell>
                <mxCell id="2" value="&lt;font color=&quot;#000000&quot; size=&quot;1&quot;&gt;&lt;b style=&quot;font-size: 18px&quot;&gt;LiDAR&lt;/b&gt;&lt;/font&gt;" style="rounded=1;whiteSpace=wrap;html=1;fillColor=none;strokeColor=#000000;strokeWidth=5;dashed=1;dashPattern=1 1;" parent="1" vertex="1">
                    <mxGeometry x="220" y="160" width="120" height="60" as="geometry"/>
                </mxCell>
                <mxCell id="3" value="&lt;font color=&quot;#000000&quot; size=&quot;1&quot;&gt;&lt;b style=&quot;font-size: 18px&quot;&gt;Odometry&lt;/b&gt;&lt;/font&gt;" style="rounded=1;whiteSpace=wrap;html=1;fillColor=none;strokeColor=#000000;strokeWidth=5;dashed=1;dashPattern=1 1;" parent="1" vertex="1">
                    <mxGeometry x="220" y="240" width="120" height="60" as="geometry"/>
                </mxCell>
                <mxCell id="4" value="&lt;font color=&quot;#000000&quot; size=&quot;1&quot;&gt;&lt;b style=&quot;font-size: 18px&quot;&gt;Left &lt;br&gt;Camera&lt;/b&gt;&lt;/font&gt;" style="rounded=1;whiteSpace=wrap;html=1;fillColor=none;strokeColor=#000000;strokeWidth=5;dashed=1;dashPattern=1 1;" parent="1" vertex="1">
                    <mxGeometry x="220" y="393" width="120" height="60" as="geometry"/>
                </mxCell>
                <mxCell id="5" value="&lt;span style=&quot;color: rgb(0 , 0 , 0)&quot;&gt;&lt;b&gt;&lt;font style=&quot;font-size: 18px&quot;&gt;Center Camera&lt;/font&gt;&lt;/b&gt;&lt;/span&gt;" style="rounded=1;whiteSpace=wrap;html=1;fillColor=none;strokeColor=#000000;strokeWidth=5;" parent="1" vertex="1">
                    <mxGeometry x="220" y="473" width="120" height="60" as="geometry"/>
                </mxCell>
                <mxCell id="6" value="&lt;span style=&quot;color: rgb(0 , 0 , 0)&quot;&gt;&lt;b&gt;&lt;font style=&quot;font-size: 18px&quot;&gt;Right&lt;br&gt;&amp;nbsp;Camera&lt;/font&gt;&lt;/b&gt;&lt;/span&gt;" style="rounded=1;whiteSpace=wrap;html=1;fillColor=none;strokeColor=#000000;strokeWidth=5;dashed=1;dashPattern=1 1;" parent="1" vertex="1">
                    <mxGeometry x="220" y="553" width="120" height="60" as="geometry"/>
                </mxCell>
                <mxCell id="7" value="&lt;font color=&quot;#000000&quot; size=&quot;1&quot;&gt;&lt;b style=&quot;font-size: 18px&quot;&gt;Navigation&lt;/b&gt;&lt;/font&gt;" style="rounded=1;whiteSpace=wrap;html=1;fillColor=none;strokeColor=#000000;strokeWidth=5;dashed=1;dashPattern=1 1;" parent="1" vertex="1">
                    <mxGeometry x="440" y="200" width="120" height="60" as="geometry"/>
                </mxCell>
                <mxCell id="8" value="&lt;b style=&quot;font-size: 18px&quot;&gt;&lt;font color=&quot;#000000&quot; style=&quot;font-size: 18px&quot;&gt;Deep&lt;/font&gt; &lt;font color=&quot;#000000&quot; style=&quot;font-size: 18px&quot;&gt;learning&lt;/font&gt;&lt;/b&gt;" style="rounded=1;whiteSpace=wrap;html=1;fillColor=none;strokeColor=#000000;strokeWidth=5;" parent="1" vertex="1">
                    <mxGeometry x="440" y="474" width="130" height="60" as="geometry"/>
                </mxCell>
                <mxCell id="12" style="edgeStyle=none;html=1;entryX=0;entryY=0.5;entryDx=0;entryDy=0;fontSize=18;fontColor=#000000;strokeColor=#000000;strokeWidth=5;dashed=1;dashPattern=1 1;" parent="1" source="10" target="7" edge="1">
                    <mxGeometry relative="1" as="geometry"/>
                </mxCell>
                <mxCell id="13" value="" style="edgeStyle=none;html=1;fontSize=18;fontColor=#000000;strokeColor=#000000;strokeWidth=5;" parent="1" source="11" target="8" edge="1">
                    <mxGeometry relative="1" as="geometry"/>
                </mxCell>
                <mxCell id="16" value="&lt;b&gt;Input&lt;/b&gt;" style="text;html=1;strokeColor=none;fillColor=none;align=center;verticalAlign=middle;whiteSpace=wrap;rounded=0;fontSize=18;fontColor=#000000;dashed=1;dashPattern=1 1;" parent="1" vertex="1">
                    <mxGeometry x="370" y="190" width="60" height="30" as="geometry"/>
                </mxCell>
                <mxCell id="17" value="&lt;b&gt;Input&lt;/b&gt;" style="text;html=1;strokeColor=none;fillColor=none;align=center;verticalAlign=middle;whiteSpace=wrap;rounded=0;fontSize=18;fontColor=#000000;" parent="1" vertex="1">
                    <mxGeometry x="370" y="461" width="60" height="30" as="geometry"/>
                </mxCell>
                <mxCell id="18" value="&lt;b&gt;Output&lt;/b&gt;" style="text;html=1;strokeColor=none;fillColor=none;align=center;verticalAlign=middle;whiteSpace=wrap;rounded=0;fontSize=18;fontColor=#000000;" parent="1" vertex="1">
                    <mxGeometry x="590" y="464" width="60" height="30" as="geometry"/>
                </mxCell>
                <mxCell id="19" value="&lt;b&gt;Sensors&lt;/b&gt;" style="text;html=1;strokeColor=none;fillColor=none;align=center;verticalAlign=middle;whiteSpace=wrap;rounded=0;fontSize=18;fontColor=#000000;" parent="1" vertex="1">
                    <mxGeometry x="220" y="110" width="60" height="30" as="geometry"/>
                </mxCell>
                <mxCell id="20" value="&lt;b&gt;Cameras&lt;/b&gt;" style="text;html=1;strokeColor=none;fillColor=none;align=center;verticalAlign=middle;whiteSpace=wrap;rounded=0;fontSize=18;fontColor=#000000;" parent="1" vertex="1">
                    <mxGeometry x="218" y="351" width="60" height="30" as="geometry"/>
                </mxCell>
                <mxCell id="21" value="" style="edgeStyle=none;html=1;fontSize=18;fontColor=#000000;strokeColor=#000000;strokeWidth=5;exitX=1;exitY=0.5;exitDx=0;exitDy=0;" parent="1" source="8" edge="1">
                    <mxGeometry relative="1" as="geometry">
                        <mxPoint x="370" y="514" as="sourcePoint"/>
                        <mxPoint x="680" y="504" as="targetPoint"/>
                    </mxGeometry>
                </mxCell>
            </root>
        </mxGraphModel>
    </diagram>
</mxfile>